<svg id="Icon_material-archive" data-name="Icon material-archive" xmlns="http://www.w3.org/2000/svg" width="18" height="18" viewBox="0 0 18 18">
  <path id="Icon_material-archive-2" data-name="Icon material-archive" d="M22.04,6.73,20.65,5.05A1.451,1.451,0,0,0,19.5,4.5H7.5a1.486,1.486,0,0,0-1.16.55L4.96,6.73A1.958,1.958,0,0,0,4.5,8V20.5a2.006,2.006,0,0,0,2,2h14a2.006,2.006,0,0,0,2-2V8a1.958,1.958,0,0,0-.46-1.27ZM13.5,19,8,13.5h3.5v-2h4v2H19ZM6.62,6.5l.81-1h12l.94,1Z" transform="translate(-4.5 -4.5)" fill="#595655"/>
</svg>
